HIERARCHY
ROOT pelvis
{
	OFFSET 0.000000 0.000000 0.000000
	CHANNELS 6 Xposition Yposition Zposition Zrotation Xrotation Yrotation
	JOINT lfemur
	{
		OFFSET 11.446000 0.000000 0.000000
		CHANNELS 3 Zrotation Xrotation Yrotation
		JOINT ltibia
		{
			OFFSET 0.000000 -42.030400 0.000000
			CHANNELS 3 Zrotation Xrotation Yrotation
			JOINT lfoot
			{
				OFFSET 0.000000 -39.930200 0.000000
				CHANNELS 3 Zrotation Xrotation Yrotation
				JOINT ltoes
				{
					OFFSET 0.000000 0.000000 11.775800
					CHANNELS 3 Zrotation Xrotation Yrotation
					End Site
					{
					    OFFSET 0.000000 0.000000 5.000000
					}
				}
			}
		}
	}
	JOINT rfemur
	{
		OFFSET -11.446000 0.000000 0.000000
		CHANNELS 3 Zrotation Xrotation Yrotation
		JOINT rtibia
		{
			OFFSET 0.000000 -42.030400 0.000000
			CHANNELS 3 Zrotation Xrotation Yrotation
			JOINT rfoot
			{
				OFFSET 0.000000 -39.930200 0.000000
				CHANNELS 3 Zrotation Xrotation Yrotation
				JOINT rtoes
				{
					OFFSET 0.000000 0.000000 11.775800
					CHANNELS 3 Zrotation Xrotation Yrotation
					End Site
					{
					    OFFSET 0.000000 0.000000 5.000000
					}
				}
			}
		}
	}
	JOINT thorax
	{
		OFFSET 0.000000 11.255600 -5.000000
		CHANNELS 3 Zrotation Xrotation Yrotation
		JOINT head
		{
			OFFSET 0.000000 43.799300 0.000000
			CHANNELS 3 Zrotation Xrotation Yrotation
			End Site
			{
			    OFFSET 0.000000 5.000000 0.000000
			}
		}
		JOINT lclavicle
		{
			OFFSET 0.000000 39.863000 0.000000
			CHANNELS 3 Zrotation Xrotation Yrotation
			JOINT lhumerus
			{
				OFFSET 17.380600 4.958300 0.000000
				CHANNELS 3 Zrotation Xrotation Yrotation
				JOINT lradius
				{
					OFFSET 0.000000 -27.561300 0.000000
					CHANNELS 3 Zrotation Xrotation Yrotation
					JOINT lhand
					{
						OFFSET 0.000000 -26.933000 0.000000
						CHANNELS 3 Zrotation Xrotation Yrotation
						End Site
						{
						    OFFSET 0.000000 -5.000000 0.000000
						}
					}
				}
			}
		}
		JOINT rclavicle
		{
			OFFSET 0.000000 39.863000 0.000000
			CHANNELS 3 Zrotation Xrotation Yrotation
			JOINT rhumerus
			{
				OFFSET -17.380600 4.958300 0.000000
				CHANNELS 3 Zrotation Xrotation Yrotation
				JOINT rradius
				{
					OFFSET 0.000000 -27.561300 0.000000
					CHANNELS 3 Zrotation Xrotation Yrotation
					JOINT rhand
					{
						OFFSET 0.000000 -26.933000 0.000000
						CHANNELS 3 Zrotation Xrotation Yrotation
						End Site
						{
						    OFFSET 0.000000 -5.000000 0.000000
						}
					}
				}
			}
		}
	}
}
MOTION
Frames:	10
Frame Time:	0.0333333
60.640700 87.033800 1.864400 -3.598733 -1.352869 -90.646743 -5.319160 -3.018545 -3.864562 0.000000 24.309309 -0.000000 -0.000000 -0.450012 8.332512 0.000000 -1.406783 -0.000000 -0.690711 -1.777681 -4.381407 0.000000 20.493637 0.000000 0.000000 -0.030004 -4.455449 0.000000 -29.543347 -0.000000 -4.438073 3.401194 -0.946127 18.838297 23.835172 -4.676713 2.790103 -0.000000 4.129236 84.687864 -3.814272 65.548339 -0.000001 -13.062643 -60.784382 8.321574 1.492970 -0.000000 -4.024867 -0.000000 0.026347 -78.829551 7.896274 -64.627233 0.000001 -21.271932 41.713033 -6.622448 -1.146813 0.000000 
60.679300 87.056700 1.836800 -3.571902 -1.298360 -90.727474 -5.243678 -3.072618 -3.785069 -0.000000 24.319401 -0.000000 0.000000 -0.399039 8.334062 -0.000000 -1.408265 -0.000000 -0.629720 -1.733193 -4.432724 0.000000 20.295449 -0.000000 0.000000 0.125402 -4.272295 -0.000000 -29.542907 0.000000 -4.480510 3.289515 -0.846626 18.777125 24.019646 -4.508151 2.859145 -0.000000 3.954367 84.531551 -3.669971 66.235076 0.000001 -12.849594 -61.528825 8.813088 1.620400 0.000000 -3.982198 -0.000000 0.099127 -78.873616 7.870691 -64.946321 0.000001 -21.249598 41.862855 -6.351502 -1.238829 0.000000 
60.734500 87.066000 1.804200 -3.509656 -1.197413 -90.702199 -5.138768 -3.212805 -3.875748 -0.000000 24.414409 0.000000 -0.000000 -0.416882 8.308798 -0.000000 -1.407947 -0.000000 -0.515301 -1.720481 -4.525173 -0.000000 20.081686 -0.000000 -0.000000 0.286753 -4.134160 -0.000000 -29.542603 0.000000 -4.466847 3.264179 -0.865839 18.698535 23.978796 -4.364792 2.775245 0.000000 3.830517 84.477518 -3.236241 65.501419 0.000001 -13.148403 -60.947624 8.450533 1.608892 -0.000000 -3.968323 0.000000 0.042662 -78.905532 7.821038 -65.047306 0.000002 -21.152203 41.913142 -6.295163 -1.257178 -0.000000 
60.792200 87.078100 1.785200 -3.493899 -1.114608 -90.670721 -5.057659 -3.258937 -3.961409 -0.000000 24.382985 0.000000 0.000000 -0.405208 8.407837 -0.000000 -1.401209 -0.000000 -0.421810 -1.629901 -4.604364 0.000000 19.735655 0.000000 0.000000 0.349877 -4.122446 -0.000000 -29.542705 -0.000000 -4.460032 3.290363 -0.823105 18.606192 23.915967 -4.408047 2.821978 0.000000 3.845219 84.388909 -3.174469 65.407476 -0.000000 -13.201404 -60.736564 8.469106 1.684864 0.000000 -3.807911 -0.000000 0.066054 -79.200528 8.042536 -64.664670 -0.000001 -21.070184 41.824857 -6.062242 -1.336109 0.000000 
60.858900 87.089500 1.783500 -3.457981 -1.159018 -90.697065 -5.107605 -3.232566 -4.002963 -0.000000 24.191164 0.000000 -0.000000 -0.331500 8.418945 0.000000 -1.401975 0.000000 -0.461343 -1.723637 -4.581595 -0.000000 19.745953 -0.000000 0.000000 0.366197 -4.189310 -0.000000 -29.542972 -0.000000 -4.559308 3.258668 -0.774561 18.505215 23.872098 -4.398530 2.784735 0.000000 3.725938 84.400101 -2.876176 65.272283 -0.000002 -13.300279 -60.729174 8.405424 1.789051 0.000000 -3.840881 -0.000000 0.069690 -79.113253 8.154024 -64.586064 0.000001 -21.258789 42.060408 -6.114503 -1.319117 0.000000 
60.903100 87.108700 1.774500 -3.469791 -1.155168 -90.701481 -5.096850 -3.164529 -4.074731 -0.000000 24.027011 0.000000 0.000000 -0.249390 8.470605 0.000000 -1.400630 -0.000000 -0.437376 -1.718719 -4.547303 -0.000000 19.738119 0.000000 -0.000000 0.481755 -4.202452 -0.000000 -29.543002 -0.000000 -4.591780 3.296322 -0.749946 18.413040 23.957223 -4.298075 2.791438 0.000000 3.645218 84.371892 -2.672291 65.244714 -0.000001 -13.329842 -60.801529 8.448769 1.728074 0.000000 -4.000578 0.000000 0.065852 -78.909575 8.158315 -64.661106 -0.000002 -21.315167 42.250991 -6.302027 -1.254829 0.000000 
60.959400 87.109700 1.771100 -3.486637 -1.148141 -90.675807 -5.079914 -3.167063 -4.053988 0.000000 23.998752 -0.000000 -0.000000 -0.195722 8.419888 0.000000 -1.402507 -0.000000 -0.425824 -1.703653 -4.571230 0.000000 19.616902 -0.000000 -0.000000 0.520759 -4.271048 -0.000000 -29.542688 0.000000 -4.639962 3.296262 -0.780030 18.344809 24.088287 -4.129535 2.772929 0.000000 3.755976 84.416027 -2.732163 65.092781 0.000001 -13.369775 -60.689695 8.467049 1.866414 -0.000000 -4.029931 0.000000 -0.019143 -78.910913 8.041596 -64.479157 0.000001 -21.305194 42.314689 -6.129047 -1.313608 -0.000000 
61.004500 87.114500 1.777000 -3.476458 -1.090592 -90.603799 -5.026868 -3.230313 -4.074866 0.000000 24.037572 -0.000000 0.000000 -0.240824 8.353745 -0.000000 -1.399705 -0.000000 -0.350495 -1.698923 -4.549922 -0.000000 19.588285 -0.000000 0.000000 0.566116 -4.299028 -0.000000 -29.542477 -0.000000 -4.592014 3.306849 -0.848266 18.259767 24.177640 -3.946545 2.725537 -0.000000 3.787680 84.449691 -2.705404 64.958674 0.000000 -13.353473 -60.379725 8.651811 1.878681 0.000000 -3.985771 0.000000 0.002441 -79.008506 8.088130 -64.238921 -0.000000 -21.287573 42.278957 -6.245320 -1.273846 0.000000 
61.059600 87.121800 1.771700 -3.493823 -1.046473 -90.539411 -4.974545 -3.265368 -4.102343 0.000000 24.056114 -0.000000 0.000000 -0.265489 8.290282 -0.000000 -1.403562 -0.000000 -0.284999 -1.642612 -4.502213 -0.000000 19.437013 0.000000 0.000000 0.679292 -4.366670 0.000000 -29.542019 -0.000000 -4.561326 3.297658 -0.838687 18.268952 24.244027 -3.995239 2.682981 -0.000000 3.795366 84.567247 -2.895161 65.380164 -0.000000 -13.137213 -60.795284 8.676166 1.779943 0.000000 -4.110582 -0.000000 -0.117183 -78.892012 7.845813 -64.576874 0.000000 -21.259062 41.858319 -6.121285 -1.316014 -0.000000 
61.111400 87.117300 1.785900 -3.475772 -1.077013 -90.518529 -5.011701 -3.318773 -4.103864 -0.000000 24.061652 -0.000000 0.000000 -0.187440 8.279841 -0.000000 -1.398647 -0.000000 -0.336368 -1.698358 -4.560052 -0.000000 19.402726 -0.000000 0.000000 0.611784 -4.377785 -0.000000 -29.542231 -0.000000 -4.617872 3.312113 -0.888016 18.313567 24.218210 -3.987001 2.750903 -0.000000 3.886187 84.531681 -2.981695 65.779205 0.000000 -13.062333 -61.012437 8.688422 1.483803 -0.000000 -4.079069 0.000000 -0.162224 -78.982500 7.652824 -64.578729 -0.000001 -21.136760 41.827063 -6.103062 -1.321876 -0.000000 
